<svg xmlns="http://www.w3.org/2000/svg" viewBox="0 0 1797.81 982.05">
  <style>
    path { fill: #1A1918; }
    @media (prefers-color-scheme: dark) {
      path { fill: #F2F2E7; }
    }
  </style>
  <g id="Layer_2" data-name="Layer 2"><g id="Layer_1-2" data-name="Layer 1"><g id="Tortoise_filled" data-name="Tortoise filled"><path d="M1385.07,436.15c6.67-1.55-3.55-39-3.94-43.86-7.79-30.44-37.93-83.17-37.91-83.14-32.73-49.81-65.84-76.48-111.72-116.71-29.85-26.18-58.09-53.57-91.39-74.18-21.24-11.76-41.64-28.92-65.65-32.94-26.25-4.41-36.92,36.91-52.22,56.68-21.18,27-35.73,58.21-52.57,88.09l.17-.29c-9.42,16-19.65,31.42-29.89,46.84-6.31,7.53-6.83,14.75,1.08,21.26,37.23,32.41,78.51,59.38,114.62,93.36h0a315.86,315.86,0,0,1,29,28.77l-.22-.25c16,22.17,21.71,16.64,46.24,18.61,66.27,5.34,104.12,8.59,174.9,6.67C1311.27,444.89,1385.07,436.15,1385.07,436.15Z"/><path d="M1026.31,79.37c-3.79-29.58-46.42-25.49-58.86-28.94-31.26-8.64-58.53-5.5-85.48-6.8C727.89,36.21,561.36,41,434.7,140c-10.76,10.39-39.49,22-30,40.73,7.23,12.88,20,20.83,31.1,29.64,16.06,11.81,31.94,17.74,48.59,28.58,26.87,17.53,52.9,36.42,79.32,54.67,15.91,9.2,34.54,35.76,52.33,37.31,26.17-3.16,54.39-8.68,82.08-12.27,67.86-8.77,132.77-10.46,191.1-48.77C921.08,249,940.88,211,959.9,177.75l0,.05c0-.1.11-.19.17-.29l-.09.15C973.14,155.24,1028,92.33,1026.31,79.37Z"/><path d="M565.41,352.6c-.18-22.55-39.78-37.44-67.18-56.75C486.39,287.5,454,265.92,454,265.92c-17.07-10.05-63.27-35.51-94-41a29.37,29.37,0,0,0-30.2,13.59c-13.32,21.72-21.69,46.63-35.46,68.13v0c-27.64,49-61.5,94.15-88.38,143.49-16.67,36.54-30.09,75.55-35.07,115.53-3.08,23.13,54.08,2.73,66.68,2,34.73-7.2,69.62-13.85,105-16.65h0c201.64-18,112.65,44.33,188.48-134.9,0,.1-.09.2-.13.31a257,257,0,0,1,14.64-28.92,2.75,2.75,0,0,1-.17.29"/><path d="M438.71,583.83c-28.88-.13-55.54,5.12-90.39,9.68-47,5.57-138.73,14.93-162.28,24.5-45.83,18.64-8.2,48.25,7.88,57.61,32.59,19,84.27,45.68,127.69,54.53,55.94,11,118.72,21.62,169.6,20.29,24.81-.65,127.12,29.91,77.48-36.92-8.64-11.63-17.59-39.08-25.27-50.87.06.09-26.83-43.87-48.9-67.22-2.67-2.83-10.64-11-15.43-8.89C479.09,586.54,446.81,583.87,438.71,583.83Z"/><path d="M907,325.46c-5-5.31-35.08.16-41.78.18C808.07,332,749.25,342.22,684,351c-21.2,2.81-39.86,10.27-60.65,15.53-21,8.36-34.73,18.32-46.74,36.11-25,48-44.19,99.73-62.16,150.78-2,19.27,27.63,48.82,38.86,63.89l0,0a2.62,2.62,0,0,0,.22.25l0,0c8.45,9.65,16.85,19.51,23.88,30.3l-.19-.29a248.4,248.4,0,0,1,15.59,27v0c9.19,19.28,18.18,38.72,28.83,57.25,10.14,16.58,13.49,26.74,35.49,25.06,77.17.17,78.66,5,156,.77,15.83-.87,76.82-15.47,112-18.94,10-1,26.32-1.39,32.25-5.9,18.74-19.74,23.09-48.42,31.24-73.49h0l0-.1,0,.07c13.81-44.56,27.73-89.16,44.5-132.69,17.56-36,21-67.19-4.05-96.63C999,396.27,979,386.08,953.7,367"/><path d="M881.52,338.1l-.19,0,.33,0h0a143.78,143.78,0,0,1,17.85-.72"/><path d="M1022.73,692c0,.11-.07.22-.1.32.08-.27.17-.55.25-.83l0,.15c14.69-43.36,53.42-228,115.31-213.55,45.28,10.59,250.75-16.64,239.66,6-59.54,121.48-114.17,181.57-347.37,234.46C1008.89,721.65,1019.67,703.67,1022.73,692Z"/><path d="M1120.56,733.31h0l.28-.07Z"/><path d="M1791.11,145.79C1765,81.84,1706,32.15,1644.29,9c-46.23-17-96.68-7.62-141.85,8.82-62.19,25.92-110.59,135.83-98,197.56,16,78.47,14,141.29,17.86,158.29l0-.16c0,.12,0,.24.07.35l0-.17c3.21,14.93,3.45,30.32,2.77,45.55v0c0,.12,0,.23,0,.35v-.15c-1.53,54.48-21.89,106.84-54.9,148.75a581.38,581.38,0,0,1-41.06,47.21l.14-.15-.23.24.08-.09c-12.31,12.28-25.71,23.27-39.39,33.8l.07-.06c-50.18,39.95-105.26,73.25-169.14,84.2-46.38,11-93.38,18.52-140.24,26.81-53.13,10-105.84,23-159.74,27.84-69.51,3.27-139.19.09-208.74-.62C560,787,508.2,792.71,456.35,789.86c-54.75-4.29-110.1-7.36-163.83-19.73-46.21-13.3-89.75-34.89-133.55-54.88l.29.15c-17.53-7.06-31.85-23-50.51-26.29-19.85.54-55,42.49-74.06,55.59C23,755.49-23.64,789.83,15.12,794c20.45,3.35,41.06,6.26,61.79,6,25,1.64,83.42,8.51,116.66,12.15,14.19,1.55,7.49,17.32,2.88,24.83C179.82,864.12,152.9,905.9,135,942c-16.1,31.4-10.9,32.44,20.66,32,36.69.37,73.39,1,110,3l-.33,0c30.05.74,60.06,7.74,90.1,4,39.92-3.21,47.73,2.44,66.63-57.47,15.11-47.9,26-58.81,45.54-58,0,0,206.23,34.24,302.28,30.93,115.56.44,229.8-39.47,345-44.5.33.12.65.24,1,.39a9.74,9.74,0,0,1,.86.56c2.17,2,3,5.06,4,7.8,36.5,119.43,36.39,107.3,150.92,108.92,35.86-.19,117.19,23.17,132.62-22.94-.36-36.55-38.86-73.64-56.86-103.95l.13.19c-10.87-17.65-30.33-42.42-16.72-63.42,1-1.19,2.09-2.28,3.18-3.38,60.36-58.77,119.54-119.69,168.18-189.63,31.34-48.13,72-100,83.62-156.24,14.63-70.49,46.62-92.88,123.74-122.82C1782.17,279.22,1812.44,201.48,1791.11,145.79Zm-196-17.71c18.25-28.76,65.84-33.25,77,25.41C1679.1,190.45,1560.44,209.81,1595.12,128.08Z"/></g></g></g>
</svg>
